<svg width="1024" height="1024" viewBox="0 0 1024 1024" fill="none" xmlns="http://www.w3.org/2000/svg">
<path opacity="0.5" d="M646.161 906.314C623.517 922.38 594.669 929.661 565.196 924.293L469.275 906.824H635.671C639.21 906.824 642.71 906.65 646.161 906.314ZM277.036 675.279L261.533 760.406C257.114 784.669 264.696 808.34 280.054 825.315C285.003 845.676 295.786 863.753 310.532 877.678C256.392 864.11 221.361 810.64 231.505 754.939L277.036 504.928V675.279ZM711.014 146.888C766.765 159.268 803.205 213.63 792.885 270.301L742.499 546.966V376.613L762.856 264.832C767.785 237.767 757.781 211.44 738.708 194.319C733.716 176.103 724.024 159.831 711.014 146.888ZM382.889 115.798C404.763 101.935 431.707 95.9396 459.193 100.945L540.716 115.792H383.863C383.538 115.792 383.214 115.795 382.889 115.798Z" fill="#FF8C00"/>
<rect x="291.944" y="130.699" width="434.941" height="760.511" rx="91.5665" stroke="#FF8C00" stroke-width="30.5222"/>
<rect x="439.467" y="174.049" width="139.893" height="35.6092" rx="17.8046" fill="#FF8C00"/>
</svg>
